<svg width="20" height="20" viewBox="0 0 20 20" fill="none" xmlns="http://www.w3.org/2000/svg">
<path d="M16.6666 5.83332V5.66666C16.6666 4.26653 16.6666 3.56646 16.3942 3.03168C16.1545 2.56128 15.772 2.17882 15.3016 1.93914C14.7668 1.66666 14.0668 1.66666 12.6666 1.66666H7.33331C5.93318 1.66666 5.23312 1.66666 4.69834 1.93914C4.22793 2.17882 3.84548 2.56128 3.6058 3.03168C3.33331 3.56646 3.33331 4.26653 3.33331 5.66666V14.3333C3.33331 15.7335 3.33331 16.4335 3.6058 16.9683C3.84548 17.4387 4.22793 17.8212 4.69834 18.0608C5.23312 18.3333 5.93318 18.3333 7.33331 18.3333H10.4166M10.4166 9.16666H6.66665M9.58331 12.5H6.66665M13.3333 5.83332H6.66665M15 15V10.4167C15 9.7263 15.5596 9.16666 16.25 9.16666C16.9403 9.16666 17.5 9.7263 17.5 10.4167V15C17.5 16.3807 16.3807 17.5 15 17.5C13.6193 17.5 12.5 16.3807 12.5 15V11.6667" stroke="#667085" stroke-width="1.5" stroke-linecap="round" stroke-linejoin="round"/>
</svg>
